# xmcd
#
# Track frame offsets:
#	150
#	23022
#	45384
#	87626
#	107335
#	136853
#	156569
#	173844
#	198145
#	227559
#	247799
#	270703
#	297871
#	320694
# Disc length: 4726 seconds
# Revision: 1
# Processed by: cddbd v1.5.2PL0 Copyright (c) Steve Scherf et al.
#
# Submitted via: libkcddb 0.31
#
DISCID=b412740e
DTITLE=Brian Auger - Get Auger-nized! The Anthology. Disc 2
DYEAR=2004
DGENRE=Jazz
TTITLE0=I Want To Take You Higher
TTITLE1=Maiden Voyage
TTITLE2=Listen Here
TTITLE3=The Light
TTITLE4=The Sword
TTITLE5=Marai's Wedding
TTITLE6=Fill Your Head With Laughter
TTITLE7=Freedom Jazz Dance
TTITLE8=Happiness Is Just Around The Bend
TTITLE9=Inner City Blues
TTITLE10=Straight Ahead
TTITLE11=Foolish Girl
TTITLE12=Blue Note Shuttle
TTITLE13=Voices Of Other Times
EXTD=YEAR: 2004
EXTT0=
EXTT1=
EXTT2=
EXTT3=
EXTT4=
EXTT5=
EXTT6=
EXTT7=
EXTT8=
EXTT9=
EXTT10=
EXTT11=
EXTT12=
EXTT13=
PLAYORDER=
